<svg xmlns="http://www.w3.org/2000/svg" width="16" height="16" fill="#ff8040" class="bi bi-cassette-fill" viewBox="0 0 16 16">
  <path d="M 1.5 2 A 1.5 1.5 0 0 0 0 3.5 v 9 A 1.5 1.5 0 0 0 1.5 14 h 0.2 l 1.9 -3.7 A 0.5 0.5 0 0 1 4 10 h 8 a 0.5 0.5 0 0 1 0.4 0.3 L 14.3 14 h 0.2 a 1.5 1.5 0 0 0 1.5 -1.5 v -9 A 1.5 1.5 0 0 0 14.5 2 z M 4 7 a 1 1 0 1 1 0 -2 a 1 1 0 0 1 0 2 m 8 0 a 1 1 0 1 1 0 -2 a 1 1 0 0 1 0 2 M 6 6 a 1 1 0 0 1 1 -1 h 2 a 1 1 0 0 1 0 2 H 7 a 1 1 0 0 1 -1 -1"/>
  <path d="M 13.2 14 l -1.5 -3 H 4.3 l -1.5 3 h 10.4 Z"/>
</svg>